HIERARCHY
ROOT Hips
{
     OFFSET -5.27719 98.17270 13.69670
     CHANNELS 6 Xposition Yposition Zposition Zrotation Xrotation Yrotation
     JOINT Spine
     {
          OFFSET 0.00000 11.89050 0.00000
          CHANNELS 3 Zrotation Xrotation Yrotation
          JOINT Spine1
          {
               OFFSET 0.00000 25.65740 0.12766
               CHANNELS 3 Zrotation Xrotation Yrotation
               JOINT HEad
               {
                    OFFSET 0.00000 8.73416 0.01134
                    CHANNELS 3 Zrotation Xrotation Yrotation
                    End Site
                    {
                         OFFSET -0.29000 12.77420 2.51395
                    }
               }
               JOINT LeftShoulder1
               {
                    OFFSET 8.99000 -0.36225 -0.22000
                    CHANNELS 3 Zrotation Xrotation Yrotation
                    JOINT LeftArm
                    {
                         OFFSET 10.28270 -0.00338 0.32212
                         CHANNELS 3 Zrotation Xrotation Yrotation
                         JOINT LeftForeArm
                         {
                              OFFSET 32.76690 0.09914 -1.42434
                              CHANNELS 3 Zrotation Xrotation Yrotation
                              JOINT LeftHand
                              {
                                   OFFSET 27.56430 0.08536 1.02216
                                   CHANNELS 3 Zrotation Xrotation Yrotation
                                   End Site
                                   {
                                        OFFSET 16.74430 -0.60000 1.50291
                                   }
                              }
                         }
                    }
               }
               JOINT RightShoulder
               {
                    OFFSET -8.99000 -0.36225 -0.22000
                    CHANNELS 3 Zrotation Xrotation Yrotation
                    JOINT RightArm
                    {
                         OFFSET -10.28270 -0.00338 0.32212
                         CHANNELS 3 Zrotation Xrotation Yrotation
                         JOINT RightForeArm
                         {
                              OFFSET -32.89710 0.09914 -1.42434
                              CHANNELS 3 Zrotation Xrotation Yrotation
                              JOINT RightHand
                              {
                                   OFFSET -27.49210 0.08536 1.02216
                                   CHANNELS 3 Zrotation Xrotation Yrotation
                                   End Site
                                   {
                                        OFFSET -16.63120 -0.60000 1.50291
                                   }
                              }
                         }
                    }
               }
          }
     }
     JOINT LeftUpLeg
     {
          OFFSET 8.94580 -8.66707 0.10165
          CHANNELS 3 Zrotation Xrotation Yrotation
          JOINT LeftLeg
          {
               OFFSET -0.00000 -44.42270 1.37270
               CHANNELS 3 Zrotation Xrotation Yrotation
               JOINT LeftFoot
               {
                    OFFSET -0.25355 -42.09240 -1.46059
                    CHANNELS 3 Zrotation Xrotation Yrotation
                    JOINT LeftToes
                    {
                         OFFSET -0.04000 -4.41509 8.49910
                         CHANNELS 3 Zrotation Xrotation Yrotation
                         End Site
                         {
                              OFFSET 0.08000 -0.04745 9.77979
                         }
                    }
               }
          }
     }
     JOINT RightUpLeg
     {
          OFFSET -8.94580 -8.66707 0.10165
          CHANNELS 3 Zrotation Xrotation Yrotation
          JOINT RightLeg
          {
               OFFSET 0.00000 -44.42270 1.37270
               CHANNELS 3 Zrotation Xrotation Yrotation
               JOINT RightFoot
               {
                    OFFSET 0.25355 -42.09240 -1.46059
                    CHANNELS 3 Zrotation Xrotation Yrotation
                    JOINT RightToes
                    {
                         OFFSET 0.04000 -4.41509 8.49910
                         CHANNELS 3 Zrotation Xrotation Yrotation
                         End Site
                         {
                              OFFSET -0.08000 -0.13745 9.77979
                         }
                    }
               }
          }
     }
}
MOTION
Frames: 7
Frame Time: 0.01667
-10.45220 85.18610 -1.37001 1.43111 -5.26201 -36.96020 -5.37127 7.98790 3.68048 -6.00285 15.18700 6.63537 0.83782 -5.05243 31.58260 -0.00000 -0.00000 0.00000 -94.68320 -40.39320 -101.73800 -18.42100 28.72420 -76.72510 5.55594 9.67997 -0.87718 6.56883 0.56717 2.43504 47.76560 -8.62295 88.57110 7.24925 11.54450 80.63540 -5.55712 9.68432 0.87760 15.10230 -34.00110 8.01292 13.23870 48.57990 -37.30110 -26.36410 -17.93050 -2.36621 1.76390 -8.08545 -9.78844 -19.22730 -13.69350 -2.13256 11.79180 79.11740 -18.53390 9.67911 -35.52140 2.14428 6.31842 8.73627 0.54069 
-11.15400 84.35150 -2.36928 1.08417 -5.73801 -36.95010 -5.60074 8.20397 3.73537 -6.11464 15.52590 6.55753 2.11237 -6.62053 32.00130 -0.00000 -0.00000 0.00000 -86.81690 -40.85660 -95.82640 -16.42090 24.74280 -75.63740 5.55594 9.67997 -0.87718 6.52305 0.55375 2.31887 43.61790 -8.66287 87.39410 6.75505 10.22150 79.62070 -5.55712 9.68432 0.87760 16.78240 -34.15670 8.70902 12.34960 49.54690 -37.58390 -26.13060 -17.85080 -2.32494 1.80199 -8.08599 -10.02960 -20.76480 -12.99880 -2.35191 16.14710 82.03710 -22.96720 9.73307 -35.17140 2.12687 7.21828 9.59641 -0.03437 
-11.92400 83.73950 -3.45729 0.53803 -6.09084 -37.05420 -5.57390 8.35258 3.79769 -6.04486 15.76710 6.50484 3.44042 -8.01256 32.95460 -0.00000 -0.00000 0.00000 -76.98440 -40.79080 -88.51120 -14.11110 19.74660 -73.70010 5.55594 9.67997 -0.87718 6.56574 0.54384 2.20574 39.73990 -9.14039 85.74720 6.55985 9.57979 78.77430 -5.55712 9.68432 0.87760 18.89200 -33.86750 9.40465 10.73540 49.86170 -37.12520 -25.58270 -17.19610 -2.12229 1.80344 -8.69822 -10.27370 -22.14040 -12.03570 -2.55705 21.03710 84.43540 -28.31370 9.64739 -34.56090 2.05069 7.95636 10.22540 -0.59103 
-12.75570 83.39460 -4.66729 -0.17072 -6.30372 -37.30600 -5.29237 8.41391 3.85395 -5.82965 15.88050 6.47268 4.70806 -8.93126 34.34570 -0.00000 -0.00000 0.00000 -66.84100 -40.17440 -80.84510 -11.94200 14.79300 -71.09980 5.55594 9.67997 -0.87718 6.66504 0.53551 2.08986 36.49860 -10.08170 83.80510 6.63100 9.57039 78.18040 -5.55712 9.68432 0.87760 21.26890 -33.06830 9.89389 8.47913 49.28390 -35.81650 -24.93310 -15.79100 -1.75172 1.75040 -10.24100 -10.56860 -23.33410 -10.95130 -2.69251 26.76610 86.28740 -34.74850 9.62412 -33.64950 1.96460 8.91877 10.97340 -1.38702 
-13.64140 83.35060 -6.03812 -0.98523 -6.37429 -37.73090 -4.79453 8.37497 3.87421 -5.51484 15.84250 6.41947 5.77503 -9.14845 36.04340 -0.00000 -0.00000 0.00000 -58.15550 -39.62380 -73.80060 -10.31050 11.04760 -68.57020 5.55594 9.67997 -0.87718 6.77181 0.52823 1.98368 33.98420 -11.39320 81.93360 6.79300 9.80858 77.77650 -5.55712 9.68432 0.87760 23.65850 -31.69910 9.95636 5.95230 47.53060 -33.79200 -24.51930 -13.62700 -1.25030 1.64494 -12.57300 -10.94250 -24.38780 -9.87736 -2.71462 33.74700 87.50610 -42.40010 9.86959 -32.30200 1.90288 10.10810 11.84340 -2.40404 
-14.57440 83.63060 -7.59039 -1.85840 -6.29951 -38.36190 -4.10856 8.22574 3.84149 -5.12563 15.63520 6.33063 6.45907 -8.57215 37.85630 -0.00000 -0.00000 0.00000 -51.95280 -39.98600 -67.79830 -9.45110 9.13695 -66.97310 5.55594 9.67997 -0.87718 6.75845 0.51797 1.88825 32.27250 -12.89530 80.52880 6.86435 9.88379 77.44940 -5.55712 9.68432 0.87760 25.82820 -29.69680 9.43297 3.65147 44.35640 -31.28360 -24.54370 -10.74320 -0.62958 1.48984 -15.38250 -11.34440 -25.35010 -8.89109 -2.58656 39.01880 87.94540 -48.07510 10.41280 -30.38530 1.84637 11.05740 12.45540 -3.28902 
-15.53010 84.16490 -9.24166 -2.75963 -6.06940 -39.20030 -3.23329 7.94631 3.74173 -4.66281 15.23540 6.26795 6.56568 -7.24146 39.54590 -0.00000 -0.00000 0.00000 -48.45690 -41.80740 -62.95320 -9.38394 9.02236 -66.74670 5.55594 9.67997 -0.87718 6.40116 0.49333 1.75757 31.59130 -14.39180 79.85080 6.76369 9.60407 77.15670 -5.55712 9.68432 0.87760 27.65560 -27.16780 8.26513 1.97021 39.96490 -28.48190 -24.87820 -7.31656 0.10418 1.28877 -18.31230 -11.56100 -26.28530 -7.95304 -2.23868 36.95130 87.46970 -46.02660 11.12870 -27.97090 1.75535 11.22830 12.40050 -3.64623 
